<mxfile host="Electron" modified="2024-08-15T09:39:14.288Z" agent="Mozilla/5.0 (Windows NT 10.0; Win64; x64) AppleWebKit/537.36 (KHTML, like Gecko) draw.io/23.1.5 Chrome/120.0.6099.109 Electron/28.1.0 Safari/537.36" etag="dJ6KXkjUaWvx7Gcl_1JZ" version="23.1.5" type="device">
  <diagram name="Page-1" id="_Pgi_4-e0fUafFxGwACF">
    <mxGraphModel dx="6694" dy="3547" grid="1" gridSize="10" guides="1" tooltips="1" connect="1" arrows="1" fold="1" page="1" pageScale="1" pageWidth="827" pageHeight="1169" math="0" shadow="0">
      <root>
        <mxCell id="0" />
        <mxCell id="1" parent="0" />
        <mxCell id="1Zl8g6SMvQ0k70rbWufC-52" value="" style="group" parent="1" vertex="1" connectable="0">
          <mxGeometry x="-816" y="10" width="780" height="623" as="geometry" />
        </mxCell>
        <mxCell id="1Zl8g6SMvQ0k70rbWufC-2" value="&lt;font style=&quot;font-size: 14px;&quot;&gt;START&lt;/font&gt;" style="ellipse;whiteSpace=wrap;html=1;" parent="1Zl8g6SMvQ0k70rbWufC-52" vertex="1">
          <mxGeometry x="333" width="110" height="60" as="geometry" />
        </mxCell>
        <mxCell id="1Zl8g6SMvQ0k70rbWufC-3" value="&lt;font style=&quot;font-size: 14px;&quot;&gt;Khởi động thiết bị&lt;/font&gt;" style="rounded=1;whiteSpace=wrap;html=1;" parent="1Zl8g6SMvQ0k70rbWufC-52" vertex="1">
          <mxGeometry x="295.5" y="100" width="185" height="60" as="geometry" />
        </mxCell>
        <mxCell id="1Zl8g6SMvQ0k70rbWufC-17" value="" style="edgeStyle=orthogonalEdgeStyle;rounded=0;orthogonalLoop=1;jettySize=auto;html=1;" parent="1Zl8g6SMvQ0k70rbWufC-52" source="1Zl8g6SMvQ0k70rbWufC-2" target="1Zl8g6SMvQ0k70rbWufC-3" edge="1">
          <mxGeometry relative="1" as="geometry" />
        </mxCell>
        <mxCell id="1Zl8g6SMvQ0k70rbWufC-4" value="&lt;font style=&quot;font-size: 14px;&quot;&gt;Cập nhật trạng thái mạng&lt;/font&gt;" style="rounded=1;whiteSpace=wrap;html=1;" parent="1Zl8g6SMvQ0k70rbWufC-52" vertex="1">
          <mxGeometry x="295.5" y="210" width="185" height="60" as="geometry" />
        </mxCell>
        <mxCell id="1Zl8g6SMvQ0k70rbWufC-18" value="" style="edgeStyle=orthogonalEdgeStyle;rounded=0;orthogonalLoop=1;jettySize=auto;html=1;" parent="1Zl8g6SMvQ0k70rbWufC-52" source="1Zl8g6SMvQ0k70rbWufC-3" target="1Zl8g6SMvQ0k70rbWufC-4" edge="1">
          <mxGeometry relative="1" as="geometry" />
        </mxCell>
        <mxCell id="1Zl8g6SMvQ0k70rbWufC-5" value="&lt;font style=&quot;font-size: 14px;&quot;&gt;Trạng thái IDLE&lt;/font&gt;" style="rounded=1;whiteSpace=wrap;html=1;" parent="1Zl8g6SMvQ0k70rbWufC-52" vertex="1">
          <mxGeometry x="295.5" y="320" width="185" height="60" as="geometry" />
        </mxCell>
        <mxCell id="1Zl8g6SMvQ0k70rbWufC-19" value="" style="edgeStyle=orthogonalEdgeStyle;rounded=0;orthogonalLoop=1;jettySize=auto;html=1;" parent="1Zl8g6SMvQ0k70rbWufC-52" source="1Zl8g6SMvQ0k70rbWufC-4" target="1Zl8g6SMvQ0k70rbWufC-5" edge="1">
          <mxGeometry relative="1" as="geometry" />
        </mxCell>
        <mxCell id="1Zl8g6SMvQ0k70rbWufC-12" value="" style="triangle;whiteSpace=wrap;html=1;direction=north;" parent="1Zl8g6SMvQ0k70rbWufC-52" vertex="1">
          <mxGeometry x="348" y="429" width="80" height="60" as="geometry" />
        </mxCell>
        <mxCell id="1Zl8g6SMvQ0k70rbWufC-20" value="" style="edgeStyle=orthogonalEdgeStyle;rounded=0;orthogonalLoop=1;jettySize=auto;html=1;" parent="1Zl8g6SMvQ0k70rbWufC-52" source="1Zl8g6SMvQ0k70rbWufC-5" target="1Zl8g6SMvQ0k70rbWufC-12" edge="1">
          <mxGeometry relative="1" as="geometry" />
        </mxCell>
        <mxCell id="1Zl8g6SMvQ0k70rbWufC-15" value="&lt;font style=&quot;font-size: 14px;&quot;&gt;Rời mạng và Reboot&lt;br&gt;(Sơ đồ thuật toán 4)&lt;br&gt;&lt;/font&gt;" style="rounded=1;whiteSpace=wrap;html=1;" parent="1Zl8g6SMvQ0k70rbWufC-52" vertex="1">
          <mxGeometry x="620" y="563" width="160" height="60" as="geometry" />
        </mxCell>
        <mxCell id="1Zl8g6SMvQ0k70rbWufC-49" style="edgeStyle=orthogonalEdgeStyle;rounded=0;orthogonalLoop=1;jettySize=auto;html=1;entryX=0.5;entryY=0;entryDx=0;entryDy=0;" parent="1Zl8g6SMvQ0k70rbWufC-52" source="1Zl8g6SMvQ0k70rbWufC-12" target="1Zl8g6SMvQ0k70rbWufC-15" edge="1">
          <mxGeometry relative="1" as="geometry" />
        </mxCell>
        <mxCell id="1Zl8g6SMvQ0k70rbWufC-44" value="&lt;font style=&quot;font-size: 14px;&quot;&gt;Gửi bản tin tới HC&lt;br&gt;(Sơ đồ thuật toán 3)&lt;br&gt;&lt;/font&gt;" style="rounded=1;whiteSpace=wrap;html=1;" parent="1Zl8g6SMvQ0k70rbWufC-52" vertex="1">
          <mxGeometry x="412" y="563" width="160" height="60" as="geometry" />
        </mxCell>
        <mxCell id="1Zl8g6SMvQ0k70rbWufC-48" style="edgeStyle=orthogonalEdgeStyle;rounded=0;orthogonalLoop=1;jettySize=auto;html=1;entryX=0.5;entryY=0;entryDx=0;entryDy=0;exitX=0.5;exitY=1;exitDx=0;exitDy=0;" parent="1Zl8g6SMvQ0k70rbWufC-52" source="1Zl8g6SMvQ0k70rbWufC-12" target="1Zl8g6SMvQ0k70rbWufC-44" edge="1">
          <mxGeometry relative="1" as="geometry">
            <Array as="points">
              <mxPoint x="492" y="459" />
            </Array>
          </mxGeometry>
        </mxCell>
        <mxCell id="1Zl8g6SMvQ0k70rbWufC-45" value="&lt;font style=&quot;font-size: 14px;&quot;&gt;Xử lý lệnh ZCL&lt;br&gt;(Sơ đồ thuật toán 2)&lt;br&gt;&lt;/font&gt;" style="rounded=1;whiteSpace=wrap;html=1;" parent="1Zl8g6SMvQ0k70rbWufC-52" vertex="1">
          <mxGeometry x="205" y="563" width="160" height="60" as="geometry" />
        </mxCell>
        <mxCell id="1Zl8g6SMvQ0k70rbWufC-50" style="edgeStyle=orthogonalEdgeStyle;rounded=0;orthogonalLoop=1;jettySize=auto;html=1;exitX=0.5;exitY=0;exitDx=0;exitDy=0;entryX=0.5;entryY=0;entryDx=0;entryDy=0;" parent="1Zl8g6SMvQ0k70rbWufC-52" source="1Zl8g6SMvQ0k70rbWufC-12" target="1Zl8g6SMvQ0k70rbWufC-45" edge="1">
          <mxGeometry relative="1" as="geometry">
            <Array as="points">
              <mxPoint x="368" y="460" />
              <mxPoint x="285" y="460" />
            </Array>
          </mxGeometry>
        </mxCell>
        <mxCell id="1Zl8g6SMvQ0k70rbWufC-46" value="&lt;font style=&quot;font-size: 14px;&quot;&gt;Tìm mạng&lt;br&gt;(Sơ đồ thuật toán 1)&lt;br&gt;&lt;/font&gt;" style="rounded=1;whiteSpace=wrap;html=1;" parent="1Zl8g6SMvQ0k70rbWufC-52" vertex="1">
          <mxGeometry y="563" width="160" height="60" as="geometry" />
        </mxCell>
        <mxCell id="1Zl8g6SMvQ0k70rbWufC-51" style="edgeStyle=orthogonalEdgeStyle;rounded=0;orthogonalLoop=1;jettySize=auto;html=1;" parent="1Zl8g6SMvQ0k70rbWufC-52" source="1Zl8g6SMvQ0k70rbWufC-12" target="1Zl8g6SMvQ0k70rbWufC-46" edge="1">
          <mxGeometry relative="1" as="geometry" />
        </mxCell>
        <mxCell id="1Zl8g6SMvQ0k70rbWufC-246" value="&lt;font style=&quot;font-size: 14px;&quot;&gt;Sơ đồ thuật toán tổng quát&lt;/font&gt;" style="text;html=1;align=center;verticalAlign=middle;resizable=0;points=[];autosize=1;strokeColor=none;fillColor=none;" parent="1Zl8g6SMvQ0k70rbWufC-52" vertex="1">
          <mxGeometry x="6" y="8" width="190" height="30" as="geometry" />
        </mxCell>
        <mxCell id="1Zl8g6SMvQ0k70rbWufC-86" value="&lt;font style=&quot;font-size: 14px;&quot;&gt;Sơ đồ thuật toán 1&lt;/font&gt;" style="swimlane;whiteSpace=wrap;html=1;startSize=40;dashed=1;dashPattern=8 8;" parent="1" vertex="1">
          <mxGeometry x="-790" y="710" width="510" height="617" as="geometry" />
        </mxCell>
        <mxCell id="1Zl8g6SMvQ0k70rbWufC-85" value="" style="group" parent="1Zl8g6SMvQ0k70rbWufC-86" vertex="1" connectable="0">
          <mxGeometry x="20" y="54" width="463.75" height="547" as="geometry" />
        </mxCell>
        <mxCell id="1Zl8g6SMvQ0k70rbWufC-53" value="&lt;font style=&quot;font-size: 14px;&quot;&gt;START&lt;/font&gt;" style="ellipse;whiteSpace=wrap;html=1;" parent="1Zl8g6SMvQ0k70rbWufC-85" vertex="1">
          <mxGeometry x="68.75" width="110" height="60" as="geometry" />
        </mxCell>
        <mxCell id="1Zl8g6SMvQ0k70rbWufC-72" value="&lt;font style=&quot;font-size: 14px;&quot;&gt;Tìm mạng&lt;br&gt;(Nhấn giữ SW2 1s)&lt;br&gt;&lt;/font&gt;" style="rounded=1;whiteSpace=wrap;html=1;" parent="1Zl8g6SMvQ0k70rbWufC-85" vertex="1">
          <mxGeometry x="31.25" y="115" width="185" height="60" as="geometry" />
        </mxCell>
        <mxCell id="1Zl8g6SMvQ0k70rbWufC-77" value="" style="edgeStyle=orthogonalEdgeStyle;rounded=0;orthogonalLoop=1;jettySize=auto;html=1;" parent="1Zl8g6SMvQ0k70rbWufC-85" source="1Zl8g6SMvQ0k70rbWufC-53" target="1Zl8g6SMvQ0k70rbWufC-72" edge="1">
          <mxGeometry relative="1" as="geometry" />
        </mxCell>
        <mxCell id="1Zl8g6SMvQ0k70rbWufC-73" value="&lt;font style=&quot;font-size: 14px;&quot;&gt;Tìm thấy mạng?&lt;/font&gt;" style="rhombus;whiteSpace=wrap;html=1;" parent="1Zl8g6SMvQ0k70rbWufC-85" vertex="1">
          <mxGeometry x="47.5" y="227" width="152.5" height="70" as="geometry" />
        </mxCell>
        <mxCell id="1Zl8g6SMvQ0k70rbWufC-78" value="" style="edgeStyle=orthogonalEdgeStyle;rounded=0;orthogonalLoop=1;jettySize=auto;html=1;" parent="1Zl8g6SMvQ0k70rbWufC-85" source="1Zl8g6SMvQ0k70rbWufC-72" target="1Zl8g6SMvQ0k70rbWufC-73" edge="1">
          <mxGeometry relative="1" as="geometry" />
        </mxCell>
        <mxCell id="1Zl8g6SMvQ0k70rbWufC-81" style="edgeStyle=orthogonalEdgeStyle;rounded=0;orthogonalLoop=1;jettySize=auto;html=1;entryX=1;entryY=0.5;entryDx=0;entryDy=0;exitX=0.5;exitY=0;exitDx=0;exitDy=0;" parent="1Zl8g6SMvQ0k70rbWufC-85" source="1Zl8g6SMvQ0k70rbWufC-74" target="1Zl8g6SMvQ0k70rbWufC-72" edge="1">
          <mxGeometry relative="1" as="geometry" />
        </mxCell>
        <mxCell id="1Zl8g6SMvQ0k70rbWufC-74" value="&lt;font style=&quot;font-size: 14px;&quot;&gt;Khởi tạo lại quá trình&lt;br&gt;sau 5s&lt;br&gt;&lt;/font&gt;" style="rounded=1;whiteSpace=wrap;html=1;" parent="1Zl8g6SMvQ0k70rbWufC-85" vertex="1">
          <mxGeometry x="278.75" y="232" width="185" height="60" as="geometry" />
        </mxCell>
        <mxCell id="1Zl8g6SMvQ0k70rbWufC-79" value="" style="edgeStyle=orthogonalEdgeStyle;rounded=0;orthogonalLoop=1;jettySize=auto;html=1;" parent="1Zl8g6SMvQ0k70rbWufC-85" source="1Zl8g6SMvQ0k70rbWufC-73" target="1Zl8g6SMvQ0k70rbWufC-74" edge="1">
          <mxGeometry relative="1" as="geometry" />
        </mxCell>
        <mxCell id="1Zl8g6SMvQ0k70rbWufC-80" value="&lt;font style=&quot;font-size: 12px;&quot;&gt;Sai&lt;/font&gt;" style="edgeLabel;html=1;align=center;verticalAlign=middle;resizable=0;points=[];" parent="1Zl8g6SMvQ0k70rbWufC-79" vertex="1" connectable="0">
          <mxGeometry x="-0.1005" relative="1" as="geometry">
            <mxPoint as="offset" />
          </mxGeometry>
        </mxCell>
        <mxCell id="1Zl8g6SMvQ0k70rbWufC-75" value="&lt;div style=&quot;text-align: left;&quot;&gt;&lt;span style=&quot;font-size: 14px; background-color: initial;&quot;&gt;- Led nháy hồng 3 lần&lt;/span&gt;&lt;/div&gt;&lt;font style=&quot;font-size: 14px;&quot;&gt;&lt;div style=&quot;text-align: left;&quot;&gt;&lt;span style=&quot;background-color: initial;&quot;&gt;- Gửi model ID cho HC&lt;/span&gt;&lt;/div&gt;&lt;div style=&quot;text-align: left;&quot;&gt;&lt;span style=&quot;background-color: initial;&quot;&gt;- Kết thúc sự kiện tìm mạng&lt;/span&gt;&lt;/div&gt;&lt;/font&gt;" style="rounded=1;whiteSpace=wrap;html=1;" parent="1Zl8g6SMvQ0k70rbWufC-85" vertex="1">
          <mxGeometry y="377" width="247.5" height="60" as="geometry" />
        </mxCell>
        <mxCell id="1Zl8g6SMvQ0k70rbWufC-82" value="" style="edgeStyle=orthogonalEdgeStyle;rounded=0;orthogonalLoop=1;jettySize=auto;html=1;" parent="1Zl8g6SMvQ0k70rbWufC-85" source="1Zl8g6SMvQ0k70rbWufC-73" target="1Zl8g6SMvQ0k70rbWufC-75" edge="1">
          <mxGeometry relative="1" as="geometry" />
        </mxCell>
        <mxCell id="1Zl8g6SMvQ0k70rbWufC-83" value="&lt;font style=&quot;font-size: 12px;&quot;&gt;Đúng&lt;/font&gt;" style="edgeLabel;html=1;align=center;verticalAlign=middle;resizable=0;points=[];" parent="1Zl8g6SMvQ0k70rbWufC-82" vertex="1" connectable="0">
          <mxGeometry x="-0.0958" relative="1" as="geometry">
            <mxPoint as="offset" />
          </mxGeometry>
        </mxCell>
        <mxCell id="1Zl8g6SMvQ0k70rbWufC-76" value="&lt;font style=&quot;font-size: 14px;&quot;&gt;END&lt;/font&gt;" style="ellipse;whiteSpace=wrap;html=1;" parent="1Zl8g6SMvQ0k70rbWufC-85" vertex="1">
          <mxGeometry x="68.75" y="487" width="110" height="60" as="geometry" />
        </mxCell>
        <mxCell id="1Zl8g6SMvQ0k70rbWufC-84" value="" style="edgeStyle=orthogonalEdgeStyle;rounded=0;orthogonalLoop=1;jettySize=auto;html=1;" parent="1Zl8g6SMvQ0k70rbWufC-85" source="1Zl8g6SMvQ0k70rbWufC-75" target="1Zl8g6SMvQ0k70rbWufC-76" edge="1">
          <mxGeometry relative="1" as="geometry" />
        </mxCell>
        <mxCell id="1Zl8g6SMvQ0k70rbWufC-140" value="&lt;font style=&quot;font-size: 14px;&quot;&gt;Sơ đồ thuật toán 4&lt;/font&gt;" style="swimlane;whiteSpace=wrap;html=1;startSize=40;dashed=1;dashPattern=8 8;" parent="1" vertex="1">
          <mxGeometry x="-761" y="2510" width="641" height="582" as="geometry" />
        </mxCell>
        <mxCell id="1Zl8g6SMvQ0k70rbWufC-156" value="&lt;font style=&quot;font-size: 14px;&quot;&gt;Sơ đồ thuật toán 2&lt;/font&gt;" style="swimlane;whiteSpace=wrap;html=1;startSize=40;dashed=1;dashPattern=8 8;" parent="1" vertex="1">
          <mxGeometry x="-761" y="1373" width="717.5" height="567" as="geometry" />
        </mxCell>
        <mxCell id="1Zl8g6SMvQ0k70rbWufC-157" value="" style="group" parent="1" vertex="1" connectable="0">
          <mxGeometry x="-737.5" y="1436" width="667.5" height="473.28999999999996" as="geometry" />
        </mxCell>
        <mxCell id="1Zl8g6SMvQ0k70rbWufC-87" value="&lt;font style=&quot;font-size: 14px;&quot;&gt;START&lt;/font&gt;" style="ellipse;whiteSpace=wrap;html=1;" parent="1Zl8g6SMvQ0k70rbWufC-157" vertex="1">
          <mxGeometry x="37.5" width="110" height="60" as="geometry" />
        </mxCell>
        <mxCell id="1Zl8g6SMvQ0k70rbWufC-89" value="&lt;font style=&quot;font-size: 14px;&quot;&gt;Gửi bản tin dạng&lt;br&gt;Unicast?&lt;/font&gt;" style="rhombus;whiteSpace=wrap;html=1;" parent="1Zl8g6SMvQ0k70rbWufC-157" vertex="1">
          <mxGeometry y="118" width="185" height="90" as="geometry" />
        </mxCell>
        <mxCell id="1Zl8g6SMvQ0k70rbWufC-95" value="" style="edgeStyle=orthogonalEdgeStyle;rounded=0;orthogonalLoop=1;jettySize=auto;html=1;" parent="1Zl8g6SMvQ0k70rbWufC-157" source="1Zl8g6SMvQ0k70rbWufC-87" target="1Zl8g6SMvQ0k70rbWufC-89" edge="1">
          <mxGeometry relative="1" as="geometry" />
        </mxCell>
        <mxCell id="1Zl8g6SMvQ0k70rbWufC-90" value="&lt;font style=&quot;font-size: 14px;&quot;&gt;Gửi bản tin dạng&lt;br&gt;Multicast?&lt;/font&gt;" style="rhombus;whiteSpace=wrap;html=1;" parent="1Zl8g6SMvQ0k70rbWufC-157" vertex="1">
          <mxGeometry y="271" width="185" height="90" as="geometry" />
        </mxCell>
        <mxCell id="1Zl8g6SMvQ0k70rbWufC-96" value="" style="edgeStyle=orthogonalEdgeStyle;rounded=0;orthogonalLoop=1;jettySize=auto;html=1;" parent="1Zl8g6SMvQ0k70rbWufC-157" source="1Zl8g6SMvQ0k70rbWufC-89" target="1Zl8g6SMvQ0k70rbWufC-90" edge="1">
          <mxGeometry relative="1" as="geometry" />
        </mxCell>
        <mxCell id="1Zl8g6SMvQ0k70rbWufC-97" value="&lt;font style=&quot;font-size: 12px;&quot;&gt;Sai&lt;/font&gt;" style="edgeLabel;html=1;align=center;verticalAlign=middle;resizable=0;points=[];" parent="1Zl8g6SMvQ0k70rbWufC-96" vertex="1" connectable="0">
          <mxGeometry x="-0.1005" y="-1" relative="1" as="geometry">
            <mxPoint as="offset" />
          </mxGeometry>
        </mxCell>
        <mxCell id="1Zl8g6SMvQ0k70rbWufC-91" value="&lt;font style=&quot;font-size: 14px;&quot;&gt;Thực thi lệnh&lt;br&gt;&lt;/font&gt;" style="rounded=1;whiteSpace=wrap;html=1;" parent="1Zl8g6SMvQ0k70rbWufC-157" vertex="1">
          <mxGeometry x="267.5" y="133" width="140" height="60" as="geometry" />
        </mxCell>
        <mxCell id="1Zl8g6SMvQ0k70rbWufC-98" value="" style="edgeStyle=orthogonalEdgeStyle;rounded=0;orthogonalLoop=1;jettySize=auto;html=1;" parent="1Zl8g6SMvQ0k70rbWufC-157" source="1Zl8g6SMvQ0k70rbWufC-89" target="1Zl8g6SMvQ0k70rbWufC-91" edge="1">
          <mxGeometry relative="1" as="geometry" />
        </mxCell>
        <mxCell id="1Zl8g6SMvQ0k70rbWufC-99" value="&lt;span style=&quot;font-size: 12px;&quot;&gt;Đúng&lt;/span&gt;" style="edgeLabel;html=1;align=center;verticalAlign=middle;resizable=0;points=[];" parent="1Zl8g6SMvQ0k70rbWufC-98" vertex="1" connectable="0">
          <mxGeometry x="-0.1025" relative="1" as="geometry">
            <mxPoint as="offset" />
          </mxGeometry>
        </mxCell>
        <mxCell id="1Zl8g6SMvQ0k70rbWufC-92" value="&lt;font style=&quot;font-size: 14px;&quot;&gt;Thực thi lệnh&lt;br&gt;&lt;/font&gt;" style="rounded=1;whiteSpace=wrap;html=1;" parent="1Zl8g6SMvQ0k70rbWufC-157" vertex="1">
          <mxGeometry x="267.5" y="286" width="140" height="60" as="geometry" />
        </mxCell>
        <mxCell id="1Zl8g6SMvQ0k70rbWufC-100" value="" style="edgeStyle=orthogonalEdgeStyle;rounded=0;orthogonalLoop=1;jettySize=auto;html=1;" parent="1Zl8g6SMvQ0k70rbWufC-157" source="1Zl8g6SMvQ0k70rbWufC-90" target="1Zl8g6SMvQ0k70rbWufC-92" edge="1">
          <mxGeometry relative="1" as="geometry" />
        </mxCell>
        <mxCell id="1Zl8g6SMvQ0k70rbWufC-101" value="&lt;span style=&quot;font-size: 12px;&quot;&gt;Đúng&lt;/span&gt;" style="edgeLabel;html=1;align=center;verticalAlign=middle;resizable=0;points=[];" parent="1Zl8g6SMvQ0k70rbWufC-100" vertex="1" connectable="0">
          <mxGeometry x="-0.0101" relative="1" as="geometry">
            <mxPoint as="offset" />
          </mxGeometry>
        </mxCell>
        <mxCell id="1Zl8g6SMvQ0k70rbWufC-93" value="&lt;font style=&quot;font-size: 14px;&quot;&gt;Chuyển tiếp bản tin cho&lt;br&gt;các thiết bị đã Binding&lt;br&gt;&lt;/font&gt;" style="rounded=1;whiteSpace=wrap;html=1;" parent="1Zl8g6SMvQ0k70rbWufC-157" vertex="1">
          <mxGeometry x="482.5" y="133" width="185" height="60" as="geometry" />
        </mxCell>
        <mxCell id="1Zl8g6SMvQ0k70rbWufC-102" value="" style="edgeStyle=orthogonalEdgeStyle;rounded=0;orthogonalLoop=1;jettySize=auto;html=1;" parent="1Zl8g6SMvQ0k70rbWufC-157" source="1Zl8g6SMvQ0k70rbWufC-91" target="1Zl8g6SMvQ0k70rbWufC-93" edge="1">
          <mxGeometry relative="1" as="geometry" />
        </mxCell>
        <mxCell id="1Zl8g6SMvQ0k70rbWufC-94" value="&lt;font style=&quot;font-size: 14px;&quot;&gt;END&lt;/font&gt;" style="ellipse;whiteSpace=wrap;html=1;" parent="1Zl8g6SMvQ0k70rbWufC-157" vertex="1">
          <mxGeometry x="520" y="413.28999999999996" width="110" height="60" as="geometry" />
        </mxCell>
        <mxCell id="1Zl8g6SMvQ0k70rbWufC-105" style="edgeStyle=orthogonalEdgeStyle;rounded=0;orthogonalLoop=1;jettySize=auto;html=1;entryX=0;entryY=0.5;entryDx=0;entryDy=0;exitX=0.5;exitY=1;exitDx=0;exitDy=0;" parent="1Zl8g6SMvQ0k70rbWufC-157" source="1Zl8g6SMvQ0k70rbWufC-90" target="1Zl8g6SMvQ0k70rbWufC-94" edge="1">
          <mxGeometry relative="1" as="geometry" />
        </mxCell>
        <mxCell id="1Zl8g6SMvQ0k70rbWufC-106" value="&lt;font style=&quot;font-size: 12px;&quot;&gt;Sai&lt;/font&gt;" style="edgeLabel;html=1;align=center;verticalAlign=middle;resizable=0;points=[];" parent="1Zl8g6SMvQ0k70rbWufC-105" vertex="1" connectable="0">
          <mxGeometry x="-0.8366" y="-3" relative="1" as="geometry">
            <mxPoint x="3" y="-5" as="offset" />
          </mxGeometry>
        </mxCell>
        <mxCell id="1Zl8g6SMvQ0k70rbWufC-104" style="edgeStyle=orthogonalEdgeStyle;rounded=0;orthogonalLoop=1;jettySize=auto;html=1;entryX=0.5;entryY=0;entryDx=0;entryDy=0;" parent="1Zl8g6SMvQ0k70rbWufC-157" source="1Zl8g6SMvQ0k70rbWufC-92" target="1Zl8g6SMvQ0k70rbWufC-94" edge="1">
          <mxGeometry relative="1" as="geometry" />
        </mxCell>
        <mxCell id="1Zl8g6SMvQ0k70rbWufC-103" style="edgeStyle=orthogonalEdgeStyle;rounded=0;orthogonalLoop=1;jettySize=auto;html=1;entryX=0.5;entryY=0;entryDx=0;entryDy=0;" parent="1Zl8g6SMvQ0k70rbWufC-157" source="1Zl8g6SMvQ0k70rbWufC-93" target="1Zl8g6SMvQ0k70rbWufC-94" edge="1">
          <mxGeometry relative="1" as="geometry" />
        </mxCell>
        <mxCell id="1Zl8g6SMvQ0k70rbWufC-184" value="&lt;font style=&quot;font-size: 14px;&quot;&gt;Sơ đồ thuật toán 3&lt;/font&gt;" style="swimlane;whiteSpace=wrap;html=1;startSize=40;dashed=1;dashPattern=8 8;" parent="1" vertex="1">
          <mxGeometry x="-761" y="2010" width="580" height="445" as="geometry" />
        </mxCell>
        <mxCell id="1Zl8g6SMvQ0k70rbWufC-185" value="" style="group" parent="1Zl8g6SMvQ0k70rbWufC-184" vertex="1" connectable="0">
          <mxGeometry x="26" y="61" width="525.62" height="360" as="geometry" />
        </mxCell>
        <mxCell id="1Zl8g6SMvQ0k70rbWufC-158" value="&lt;font style=&quot;font-size: 14px;&quot;&gt;START&lt;/font&gt;" style="ellipse;whiteSpace=wrap;html=1;" parent="1Zl8g6SMvQ0k70rbWufC-185" vertex="1">
          <mxGeometry x="55.620000000000005" width="110" height="60" as="geometry" />
        </mxCell>
        <mxCell id="1Zl8g6SMvQ0k70rbWufC-174" value="&lt;font style=&quot;font-size: 14px;&quot;&gt;- Lưu trạng thái vào attributes&lt;br&gt;&lt;div style=&quot;text-align: left;&quot;&gt;&lt;span style=&quot;background-color: initial;&quot;&gt;- Gửi trạng thái cho HC&lt;/span&gt;&lt;/div&gt;&lt;/font&gt;" style="rounded=1;whiteSpace=wrap;html=1;" parent="1Zl8g6SMvQ0k70rbWufC-185" vertex="1">
          <mxGeometry x="305.62" y="147.5" width="220" height="60" as="geometry" />
        </mxCell>
        <mxCell id="1Zl8g6SMvQ0k70rbWufC-180" value="" style="edgeStyle=orthogonalEdgeStyle;rounded=0;orthogonalLoop=1;jettySize=auto;html=1;" parent="1Zl8g6SMvQ0k70rbWufC-185" source="1Zl8g6SMvQ0k70rbWufC-175" target="1Zl8g6SMvQ0k70rbWufC-174" edge="1">
          <mxGeometry relative="1" as="geometry" />
        </mxCell>
        <mxCell id="1Zl8g6SMvQ0k70rbWufC-182" value="&lt;span style=&quot;font-size: 12px;&quot;&gt;Đúng&lt;/span&gt;" style="edgeLabel;html=1;align=center;verticalAlign=middle;resizable=0;points=[];" parent="1Zl8g6SMvQ0k70rbWufC-180" vertex="1" connectable="0">
          <mxGeometry x="-0.1399" relative="1" as="geometry">
            <mxPoint as="offset" />
          </mxGeometry>
        </mxCell>
        <mxCell id="1Zl8g6SMvQ0k70rbWufC-175" value="&lt;font style=&quot;font-size: 14px;&quot;&gt;Thiết bị có thay đổi&lt;br&gt;trạng thái hay không?&lt;br&gt;&lt;/font&gt;" style="rhombus;whiteSpace=wrap;html=1;" parent="1Zl8g6SMvQ0k70rbWufC-185" vertex="1">
          <mxGeometry y="125" width="221.25" height="105" as="geometry" />
        </mxCell>
        <mxCell id="1Zl8g6SMvQ0k70rbWufC-178" value="" style="edgeStyle=orthogonalEdgeStyle;rounded=0;orthogonalLoop=1;jettySize=auto;html=1;" parent="1Zl8g6SMvQ0k70rbWufC-185" source="1Zl8g6SMvQ0k70rbWufC-158" target="1Zl8g6SMvQ0k70rbWufC-175" edge="1">
          <mxGeometry relative="1" as="geometry" />
        </mxCell>
        <mxCell id="1Zl8g6SMvQ0k70rbWufC-176" value="&lt;span style=&quot;font-size: 14px;&quot;&gt;END&lt;/span&gt;" style="ellipse;whiteSpace=wrap;html=1;" parent="1Zl8g6SMvQ0k70rbWufC-185" vertex="1">
          <mxGeometry x="55.620000000000005" y="300" width="110" height="60" as="geometry" />
        </mxCell>
        <mxCell id="1Zl8g6SMvQ0k70rbWufC-181" style="edgeStyle=orthogonalEdgeStyle;rounded=0;orthogonalLoop=1;jettySize=auto;html=1;entryX=1;entryY=0.5;entryDx=0;entryDy=0;exitX=0.5;exitY=1;exitDx=0;exitDy=0;" parent="1Zl8g6SMvQ0k70rbWufC-185" source="1Zl8g6SMvQ0k70rbWufC-174" target="1Zl8g6SMvQ0k70rbWufC-176" edge="1">
          <mxGeometry relative="1" as="geometry" />
        </mxCell>
        <mxCell id="1Zl8g6SMvQ0k70rbWufC-179" value="" style="edgeStyle=orthogonalEdgeStyle;rounded=0;orthogonalLoop=1;jettySize=auto;html=1;" parent="1Zl8g6SMvQ0k70rbWufC-185" source="1Zl8g6SMvQ0k70rbWufC-175" target="1Zl8g6SMvQ0k70rbWufC-176" edge="1">
          <mxGeometry relative="1" as="geometry" />
        </mxCell>
        <mxCell id="1Zl8g6SMvQ0k70rbWufC-183" value="&lt;font style=&quot;font-size: 12px;&quot;&gt;Sai&lt;/font&gt;" style="edgeLabel;html=1;align=center;verticalAlign=middle;resizable=0;points=[];" parent="1Zl8g6SMvQ0k70rbWufC-179" vertex="1" connectable="0">
          <mxGeometry x="-0.1796" relative="1" as="geometry">
            <mxPoint as="offset" />
          </mxGeometry>
        </mxCell>
        <mxCell id="1Zl8g6SMvQ0k70rbWufC-243" value="" style="group" parent="1" vertex="1" connectable="0">
          <mxGeometry x="-734" y="2572" width="590" height="500" as="geometry" />
        </mxCell>
        <mxCell id="1Zl8g6SMvQ0k70rbWufC-216" value="&lt;font style=&quot;font-size: 14px;&quot;&gt;START&lt;/font&gt;" style="ellipse;whiteSpace=wrap;html=1;" parent="1Zl8g6SMvQ0k70rbWufC-243" vertex="1">
          <mxGeometry x="37.5" width="110" height="60" as="geometry" />
        </mxCell>
        <mxCell id="1Zl8g6SMvQ0k70rbWufC-217" value="&lt;span style=&quot;font-size: 14px;&quot;&gt;Nhận ZDO Leave?&lt;/span&gt;" style="rhombus;whiteSpace=wrap;html=1;" parent="1Zl8g6SMvQ0k70rbWufC-243" vertex="1">
          <mxGeometry y="121" width="185" height="90" as="geometry" />
        </mxCell>
        <mxCell id="1Zl8g6SMvQ0k70rbWufC-218" value="" style="edgeStyle=orthogonalEdgeStyle;rounded=0;orthogonalLoop=1;jettySize=auto;html=1;" parent="1Zl8g6SMvQ0k70rbWufC-243" source="1Zl8g6SMvQ0k70rbWufC-216" target="1Zl8g6SMvQ0k70rbWufC-217" edge="1">
          <mxGeometry relative="1" as="geometry" />
        </mxCell>
        <mxCell id="1Zl8g6SMvQ0k70rbWufC-219" value="&lt;span style=&quot;font-size: 14px;&quot;&gt;Nhấn nút SW1 5 lần?&lt;/span&gt;" style="rhombus;whiteSpace=wrap;html=1;" parent="1Zl8g6SMvQ0k70rbWufC-243" vertex="1">
          <mxGeometry y="281" width="185" height="90" as="geometry" />
        </mxCell>
        <mxCell id="1Zl8g6SMvQ0k70rbWufC-220" value="" style="edgeStyle=orthogonalEdgeStyle;rounded=0;orthogonalLoop=1;jettySize=auto;html=1;" parent="1Zl8g6SMvQ0k70rbWufC-243" source="1Zl8g6SMvQ0k70rbWufC-217" target="1Zl8g6SMvQ0k70rbWufC-219" edge="1">
          <mxGeometry relative="1" as="geometry" />
        </mxCell>
        <mxCell id="1Zl8g6SMvQ0k70rbWufC-221" value="&lt;font style=&quot;font-size: 12px;&quot;&gt;Sai&lt;/font&gt;" style="edgeLabel;html=1;align=center;verticalAlign=middle;resizable=0;points=[];" parent="1Zl8g6SMvQ0k70rbWufC-220" vertex="1" connectable="0">
          <mxGeometry x="-0.1005" y="-1" relative="1" as="geometry">
            <mxPoint as="offset" />
          </mxGeometry>
        </mxCell>
        <mxCell id="1Zl8g6SMvQ0k70rbWufC-228" value="&lt;div style=&quot;text-align: left;&quot;&gt;&lt;span style=&quot;font-size: 14px;&quot;&gt;- Gửi phản hồi ZDO Leave Response cho HC&lt;/span&gt;&lt;/div&gt;&lt;div style=&quot;text-align: left;&quot;&gt;&lt;span style=&quot;font-size: 14px;&quot;&gt;- Xóa Binding Table&lt;/span&gt;&lt;/div&gt;&lt;div style=&quot;text-align: left;&quot;&gt;&lt;span style=&quot;font-size: 14px;&quot;&gt;- Rời mạng&lt;/span&gt;&lt;/div&gt;&lt;div style=&quot;text-align: left;&quot;&gt;&lt;span style=&quot;font-size: 14px;&quot;&gt;- Reboot&lt;/span&gt;&lt;/div&gt;" style="rounded=1;whiteSpace=wrap;html=1;" parent="1Zl8g6SMvQ0k70rbWufC-243" vertex="1">
          <mxGeometry x="280" y="277.5" width="310" height="97" as="geometry" />
        </mxCell>
        <mxCell id="1Zl8g6SMvQ0k70rbWufC-238" style="edgeStyle=orthogonalEdgeStyle;rounded=0;orthogonalLoop=1;jettySize=auto;html=1;entryX=0.5;entryY=0;entryDx=0;entryDy=0;" parent="1Zl8g6SMvQ0k70rbWufC-243" source="1Zl8g6SMvQ0k70rbWufC-217" target="1Zl8g6SMvQ0k70rbWufC-228" edge="1">
          <mxGeometry relative="1" as="geometry" />
        </mxCell>
        <mxCell id="1Zl8g6SMvQ0k70rbWufC-239" value="&lt;span style=&quot;font-size: 12px;&quot;&gt;Đúng&lt;/span&gt;" style="edgeLabel;html=1;align=center;verticalAlign=middle;resizable=0;points=[];" parent="1Zl8g6SMvQ0k70rbWufC-238" vertex="1" connectable="0">
          <mxGeometry x="-0.7195" relative="1" as="geometry">
            <mxPoint x="-2" as="offset" />
          </mxGeometry>
        </mxCell>
        <mxCell id="1Zl8g6SMvQ0k70rbWufC-236" value="" style="edgeStyle=orthogonalEdgeStyle;rounded=0;orthogonalLoop=1;jettySize=auto;html=1;" parent="1Zl8g6SMvQ0k70rbWufC-243" source="1Zl8g6SMvQ0k70rbWufC-219" target="1Zl8g6SMvQ0k70rbWufC-228" edge="1">
          <mxGeometry relative="1" as="geometry" />
        </mxCell>
        <mxCell id="1Zl8g6SMvQ0k70rbWufC-240" value="&lt;span style=&quot;font-size: 12px;&quot;&gt;Đúng&lt;br&gt;&lt;/span&gt;" style="edgeLabel;html=1;align=center;verticalAlign=middle;resizable=0;points=[];" parent="1Zl8g6SMvQ0k70rbWufC-236" vertex="1" connectable="0">
          <mxGeometry x="-0.0905" relative="1" as="geometry">
            <mxPoint x="3" as="offset" />
          </mxGeometry>
        </mxCell>
        <mxCell id="1Zl8g6SMvQ0k70rbWufC-230" value="&lt;font style=&quot;font-size: 14px;&quot;&gt;END&lt;/font&gt;" style="ellipse;whiteSpace=wrap;html=1;" parent="1Zl8g6SMvQ0k70rbWufC-243" vertex="1">
          <mxGeometry x="37.5" y="440" width="110" height="60" as="geometry" />
        </mxCell>
        <mxCell id="1Zl8g6SMvQ0k70rbWufC-235" value="" style="edgeStyle=orthogonalEdgeStyle;rounded=0;orthogonalLoop=1;jettySize=auto;html=1;" parent="1Zl8g6SMvQ0k70rbWufC-243" source="1Zl8g6SMvQ0k70rbWufC-219" target="1Zl8g6SMvQ0k70rbWufC-230" edge="1">
          <mxGeometry relative="1" as="geometry" />
        </mxCell>
        <mxCell id="1Zl8g6SMvQ0k70rbWufC-241" value="&lt;font style=&quot;font-size: 12px;&quot;&gt;Sai&lt;/font&gt;" style="edgeLabel;html=1;align=center;verticalAlign=middle;resizable=0;points=[];" parent="1Zl8g6SMvQ0k70rbWufC-235" vertex="1" connectable="0">
          <mxGeometry x="-0.2203" relative="1" as="geometry">
            <mxPoint y="4" as="offset" />
          </mxGeometry>
        </mxCell>
        <mxCell id="1Zl8g6SMvQ0k70rbWufC-237" style="edgeStyle=orthogonalEdgeStyle;rounded=0;orthogonalLoop=1;jettySize=auto;html=1;entryX=1;entryY=0.5;entryDx=0;entryDy=0;exitX=0.5;exitY=1;exitDx=0;exitDy=0;" parent="1Zl8g6SMvQ0k70rbWufC-243" source="1Zl8g6SMvQ0k70rbWufC-228" target="1Zl8g6SMvQ0k70rbWufC-230" edge="1">
          <mxGeometry relative="1" as="geometry" />
        </mxCell>
        <mxCell id="1Zl8g6SMvQ0k70rbWufC-245" value="&lt;font style=&quot;font-size: 14px;&quot;&gt;Sơ đồ hoạt động 3&lt;/font&gt;" style="swimlane;whiteSpace=wrap;html=1;startSize=40;dashed=1;dashPattern=8 8;" parent="1" vertex="1">
          <mxGeometry x="190" y="2064" width="430" height="556" as="geometry" />
        </mxCell>
        <mxCell id="1Zl8g6SMvQ0k70rbWufC-247" value="&lt;font style=&quot;font-size: 14px;&quot;&gt;Sơ đồ hoạt động&lt;/font&gt;" style="text;html=1;align=center;verticalAlign=middle;resizable=0;points=[];autosize=1;strokeColor=none;fillColor=none;" parent="1" vertex="1">
          <mxGeometry x="20" y="10" width="130" height="30" as="geometry" />
        </mxCell>
        <mxCell id="1Zl8g6SMvQ0k70rbWufC-267" value="" style="group" parent="1" vertex="1" connectable="0">
          <mxGeometry x="11" y="10" width="870" height="539" as="geometry" />
        </mxCell>
        <mxCell id="1Zl8g6SMvQ0k70rbWufC-248" value="&lt;font style=&quot;font-size: 14px;&quot;&gt;START&lt;/font&gt;" style="ellipse;whiteSpace=wrap;html=1;" parent="1Zl8g6SMvQ0k70rbWufC-267" vertex="1">
          <mxGeometry x="375" width="110" height="60" as="geometry" />
        </mxCell>
        <mxCell id="1Zl8g6SMvQ0k70rbWufC-249" value="&lt;font style=&quot;font-size: 14px;&quot;&gt;Load trạng thái và Network&lt;/font&gt;" style="rounded=1;whiteSpace=wrap;html=1;" parent="1Zl8g6SMvQ0k70rbWufC-267" vertex="1">
          <mxGeometry x="330" y="110" width="200" height="60" as="geometry" />
        </mxCell>
        <mxCell id="1Zl8g6SMvQ0k70rbWufC-258" value="" style="edgeStyle=orthogonalEdgeStyle;rounded=0;orthogonalLoop=1;jettySize=auto;html=1;" parent="1Zl8g6SMvQ0k70rbWufC-267" source="1Zl8g6SMvQ0k70rbWufC-248" target="1Zl8g6SMvQ0k70rbWufC-249" edge="1">
          <mxGeometry relative="1" as="geometry" />
        </mxCell>
        <mxCell id="1Zl8g6SMvQ0k70rbWufC-250" value="" style="triangle;whiteSpace=wrap;html=1;direction=north;" parent="1Zl8g6SMvQ0k70rbWufC-267" vertex="1">
          <mxGeometry x="390" y="359" width="80" height="60" as="geometry" />
        </mxCell>
        <mxCell id="1Zl8g6SMvQ0k70rbWufC-262" value="" style="edgeStyle=orthogonalEdgeStyle;rounded=0;orthogonalLoop=1;jettySize=auto;html=1;" parent="1Zl8g6SMvQ0k70rbWufC-267" source="1Zl8g6SMvQ0k70rbWufC-251" target="1Zl8g6SMvQ0k70rbWufC-250" edge="1">
          <mxGeometry relative="1" as="geometry" />
        </mxCell>
        <mxCell id="1Zl8g6SMvQ0k70rbWufC-251" value="&lt;font style=&quot;font-size: 14px;&quot;&gt;Kiểm tra network và báo hiệu Led&lt;/font&gt;" style="rounded=1;whiteSpace=wrap;html=1;" parent="1Zl8g6SMvQ0k70rbWufC-267" vertex="1">
          <mxGeometry x="330" y="235" width="200" height="60" as="geometry" />
        </mxCell>
        <mxCell id="1Zl8g6SMvQ0k70rbWufC-259" value="" style="edgeStyle=orthogonalEdgeStyle;rounded=0;orthogonalLoop=1;jettySize=auto;html=1;" parent="1Zl8g6SMvQ0k70rbWufC-267" source="1Zl8g6SMvQ0k70rbWufC-249" target="1Zl8g6SMvQ0k70rbWufC-251" edge="1">
          <mxGeometry relative="1" as="geometry" />
        </mxCell>
        <mxCell id="1Zl8g6SMvQ0k70rbWufC-252" value="&lt;font style=&quot;font-size: 14px;&quot;&gt;Nếu chưa vào mạng: Led nháy đỏ 3 lần&lt;/font&gt;" style="rounded=1;whiteSpace=wrap;html=1;" parent="1Zl8g6SMvQ0k70rbWufC-267" vertex="1">
          <mxGeometry x="60" y="235" width="200" height="60" as="geometry" />
        </mxCell>
        <mxCell id="1Zl8g6SMvQ0k70rbWufC-261" value="" style="edgeStyle=orthogonalEdgeStyle;rounded=0;orthogonalLoop=1;jettySize=auto;html=1;" parent="1Zl8g6SMvQ0k70rbWufC-267" source="1Zl8g6SMvQ0k70rbWufC-251" target="1Zl8g6SMvQ0k70rbWufC-252" edge="1">
          <mxGeometry relative="1" as="geometry" />
        </mxCell>
        <mxCell id="1Zl8g6SMvQ0k70rbWufC-253" value="&lt;font style=&quot;font-size: 14px;&quot;&gt;Nếu đã vào mạng:&lt;br&gt;- Kết nối được đến HC: Led nháy hồng 3 lần&lt;br&gt;- Không kết nối được đến HC: Led nháy vàng 3 lần&lt;br&gt;&lt;/font&gt;" style="rounded=1;whiteSpace=wrap;html=1;" parent="1Zl8g6SMvQ0k70rbWufC-267" vertex="1">
          <mxGeometry x="620" y="210" width="250" height="110" as="geometry" />
        </mxCell>
        <mxCell id="1Zl8g6SMvQ0k70rbWufC-260" value="" style="edgeStyle=orthogonalEdgeStyle;rounded=0;orthogonalLoop=1;jettySize=auto;html=1;" parent="1Zl8g6SMvQ0k70rbWufC-267" source="1Zl8g6SMvQ0k70rbWufC-251" target="1Zl8g6SMvQ0k70rbWufC-253" edge="1">
          <mxGeometry relative="1" as="geometry" />
        </mxCell>
        <mxCell id="1Zl8g6SMvQ0k70rbWufC-254" value="&lt;font style=&quot;font-size: 14px;&quot;&gt;Rời mạng và Reset thiết bị&lt;br&gt;(Sơ đồ hoạt động 3)&lt;br&gt;&lt;/font&gt;" style="rounded=1;whiteSpace=wrap;html=1;" parent="1Zl8g6SMvQ0k70rbWufC-267" vertex="1">
          <mxGeometry x="670" y="479" width="190" height="60" as="geometry" />
        </mxCell>
        <mxCell id="1Zl8g6SMvQ0k70rbWufC-263" style="edgeStyle=orthogonalEdgeStyle;rounded=0;orthogonalLoop=1;jettySize=auto;html=1;entryX=0.5;entryY=0;entryDx=0;entryDy=0;" parent="1Zl8g6SMvQ0k70rbWufC-267" source="1Zl8g6SMvQ0k70rbWufC-250" target="1Zl8g6SMvQ0k70rbWufC-254" edge="1">
          <mxGeometry relative="1" as="geometry">
            <mxPoint x="656" y="408.9999999999999" as="targetPoint" />
          </mxGeometry>
        </mxCell>
        <mxCell id="1Zl8g6SMvQ0k70rbWufC-255" value="&lt;font style=&quot;font-size: 14px;&quot;&gt;Gửi bản tin tới HC&lt;br&gt;(Sơ đồ hoạt động 2)&lt;br&gt;&lt;/font&gt;" style="rounded=1;whiteSpace=wrap;html=1;" parent="1Zl8g6SMvQ0k70rbWufC-267" vertex="1">
          <mxGeometry x="460" y="479" width="160" height="60" as="geometry" />
        </mxCell>
        <mxCell id="1Zl8g6SMvQ0k70rbWufC-264" style="edgeStyle=orthogonalEdgeStyle;rounded=0;orthogonalLoop=1;jettySize=auto;html=1;entryX=0.5;entryY=0;entryDx=0;entryDy=0;exitX=0.5;exitY=1;exitDx=0;exitDy=0;" parent="1Zl8g6SMvQ0k70rbWufC-267" source="1Zl8g6SMvQ0k70rbWufC-250" target="1Zl8g6SMvQ0k70rbWufC-255" edge="1">
          <mxGeometry relative="1" as="geometry">
            <Array as="points">
              <mxPoint x="540" y="389" />
            </Array>
          </mxGeometry>
        </mxCell>
        <mxCell id="1Zl8g6SMvQ0k70rbWufC-256" value="&lt;font style=&quot;font-size: 14px;&quot;&gt;Thực thi khi nhận lệnh từ HC&lt;br&gt;(Sơ đồ hoạt động 1)&lt;br&gt;&lt;/font&gt;" style="rounded=1;whiteSpace=wrap;html=1;" parent="1Zl8g6SMvQ0k70rbWufC-267" vertex="1">
          <mxGeometry x="205" y="479" width="205" height="60" as="geometry" />
        </mxCell>
        <mxCell id="1Zl8g6SMvQ0k70rbWufC-265" style="edgeStyle=orthogonalEdgeStyle;rounded=0;orthogonalLoop=1;jettySize=auto;html=1;exitX=0.5;exitY=0;exitDx=0;exitDy=0;entryX=0.5;entryY=0;entryDx=0;entryDy=0;" parent="1Zl8g6SMvQ0k70rbWufC-267" source="1Zl8g6SMvQ0k70rbWufC-250" target="1Zl8g6SMvQ0k70rbWufC-256" edge="1">
          <mxGeometry relative="1" as="geometry">
            <Array as="points">
              <mxPoint x="307" y="389" />
            </Array>
          </mxGeometry>
        </mxCell>
        <mxCell id="1Zl8g6SMvQ0k70rbWufC-257" value="&lt;font style=&quot;font-size: 14px;&quot;&gt;Tìm mạng&lt;br&gt;&lt;/font&gt;" style="rounded=1;whiteSpace=wrap;html=1;" parent="1Zl8g6SMvQ0k70rbWufC-267" vertex="1">
          <mxGeometry y="479" width="160" height="60" as="geometry" />
        </mxCell>
        <mxCell id="1Zl8g6SMvQ0k70rbWufC-266" style="edgeStyle=orthogonalEdgeStyle;rounded=0;orthogonalLoop=1;jettySize=auto;html=1;entryX=0.5;entryY=0;entryDx=0;entryDy=0;" parent="1Zl8g6SMvQ0k70rbWufC-267" source="1Zl8g6SMvQ0k70rbWufC-250" target="1Zl8g6SMvQ0k70rbWufC-257" edge="1">
          <mxGeometry relative="1" as="geometry" />
        </mxCell>
        <mxCell id="1Zl8g6SMvQ0k70rbWufC-303" value="&lt;font style=&quot;font-size: 14px;&quot;&gt;Sơ đồ hoạt động 1&lt;/font&gt;" style="swimlane;whiteSpace=wrap;html=1;startSize=40;dashed=1;dashPattern=8 8;" parent="1" vertex="1">
          <mxGeometry x="120" y="650" width="611" height="591.5" as="geometry" />
        </mxCell>
        <mxCell id="1Zl8g6SMvQ0k70rbWufC-304" value="" style="group" parent="1" vertex="1" connectable="0">
          <mxGeometry x="143" y="714.5" width="562" height="507" as="geometry" />
        </mxCell>
        <mxCell id="1Zl8g6SMvQ0k70rbWufC-268" value="&lt;font style=&quot;font-size: 14px;&quot;&gt;Nhận lệnh từ HC&lt;/font&gt;" style="ellipse;whiteSpace=wrap;html=1;" parent="1Zl8g6SMvQ0k70rbWufC-304" vertex="1">
          <mxGeometry x="210" width="141" height="70" as="geometry" />
        </mxCell>
        <mxCell id="1Zl8g6SMvQ0k70rbWufC-289" value="&lt;font style=&quot;font-size: 14px;&quot;&gt;Gửi bản tin dạng Unicast&lt;/font&gt;" style="rounded=1;whiteSpace=wrap;html=1;" parent="1Zl8g6SMvQ0k70rbWufC-304" vertex="1">
          <mxGeometry y="227" width="200" height="60" as="geometry" />
        </mxCell>
        <mxCell id="1Zl8g6SMvQ0k70rbWufC-298" style="edgeStyle=orthogonalEdgeStyle;rounded=0;orthogonalLoop=1;jettySize=auto;html=1;entryX=0.5;entryY=0;entryDx=0;entryDy=0;" parent="1Zl8g6SMvQ0k70rbWufC-304" source="1Zl8g6SMvQ0k70rbWufC-290" target="1Zl8g6SMvQ0k70rbWufC-289" edge="1">
          <mxGeometry relative="1" as="geometry" />
        </mxCell>
        <mxCell id="1Zl8g6SMvQ0k70rbWufC-290" value="" style="triangle;whiteSpace=wrap;html=1;direction=north;" parent="1Zl8g6SMvQ0k70rbWufC-304" vertex="1">
          <mxGeometry x="241" y="117" width="80" height="60" as="geometry" />
        </mxCell>
        <mxCell id="1Zl8g6SMvQ0k70rbWufC-296" value="" style="edgeStyle=orthogonalEdgeStyle;rounded=0;orthogonalLoop=1;jettySize=auto;html=1;" parent="1Zl8g6SMvQ0k70rbWufC-304" source="1Zl8g6SMvQ0k70rbWufC-268" target="1Zl8g6SMvQ0k70rbWufC-290" edge="1">
          <mxGeometry relative="1" as="geometry" />
        </mxCell>
        <mxCell id="1Zl8g6SMvQ0k70rbWufC-291" value="&lt;font style=&quot;font-size: 14px;&quot;&gt;Thực thi lệnh&lt;/font&gt;" style="rounded=1;whiteSpace=wrap;html=1;" parent="1Zl8g6SMvQ0k70rbWufC-304" vertex="1">
          <mxGeometry y="337" width="200" height="60" as="geometry" />
        </mxCell>
        <mxCell id="1Zl8g6SMvQ0k70rbWufC-299" value="" style="edgeStyle=orthogonalEdgeStyle;rounded=0;orthogonalLoop=1;jettySize=auto;html=1;" parent="1Zl8g6SMvQ0k70rbWufC-304" source="1Zl8g6SMvQ0k70rbWufC-289" target="1Zl8g6SMvQ0k70rbWufC-291" edge="1">
          <mxGeometry relative="1" as="geometry" />
        </mxCell>
        <mxCell id="1Zl8g6SMvQ0k70rbWufC-292" value="&lt;font style=&quot;font-size: 14px;&quot;&gt;Chuyển tiếp bản tin tới các &lt;br&gt;thiết bị trong Binding Table&lt;/font&gt;" style="rounded=1;whiteSpace=wrap;html=1;" parent="1Zl8g6SMvQ0k70rbWufC-304" vertex="1">
          <mxGeometry y="447" width="200" height="60" as="geometry" />
        </mxCell>
        <mxCell id="1Zl8g6SMvQ0k70rbWufC-301" value="" style="edgeStyle=orthogonalEdgeStyle;rounded=0;orthogonalLoop=1;jettySize=auto;html=1;" parent="1Zl8g6SMvQ0k70rbWufC-304" source="1Zl8g6SMvQ0k70rbWufC-291" target="1Zl8g6SMvQ0k70rbWufC-292" edge="1">
          <mxGeometry relative="1" as="geometry" />
        </mxCell>
        <mxCell id="1Zl8g6SMvQ0k70rbWufC-293" value="&lt;font style=&quot;font-size: 14px;&quot;&gt;Gửi bạn tin dạng Multicast&lt;/font&gt;" style="rounded=1;whiteSpace=wrap;html=1;" parent="1Zl8g6SMvQ0k70rbWufC-304" vertex="1">
          <mxGeometry x="362" y="227" width="200" height="60" as="geometry" />
        </mxCell>
        <mxCell id="1Zl8g6SMvQ0k70rbWufC-297" style="edgeStyle=orthogonalEdgeStyle;rounded=0;orthogonalLoop=1;jettySize=auto;html=1;entryX=0.5;entryY=0;entryDx=0;entryDy=0;" parent="1Zl8g6SMvQ0k70rbWufC-304" source="1Zl8g6SMvQ0k70rbWufC-290" target="1Zl8g6SMvQ0k70rbWufC-293" edge="1">
          <mxGeometry relative="1" as="geometry" />
        </mxCell>
        <mxCell id="1Zl8g6SMvQ0k70rbWufC-294" value="&lt;font style=&quot;font-size: 14px;&quot;&gt;Thực thi lệnh&lt;/font&gt;" style="rounded=1;whiteSpace=wrap;html=1;" parent="1Zl8g6SMvQ0k70rbWufC-304" vertex="1">
          <mxGeometry x="362" y="337" width="200" height="60" as="geometry" />
        </mxCell>
        <mxCell id="1Zl8g6SMvQ0k70rbWufC-302" value="" style="edgeStyle=orthogonalEdgeStyle;rounded=0;orthogonalLoop=1;jettySize=auto;html=1;" parent="1Zl8g6SMvQ0k70rbWufC-304" source="1Zl8g6SMvQ0k70rbWufC-293" target="1Zl8g6SMvQ0k70rbWufC-294" edge="1">
          <mxGeometry relative="1" as="geometry" />
        </mxCell>
        <mxCell id="1Zl8g6SMvQ0k70rbWufC-348" value="" style="group" parent="1" vertex="1" connectable="0">
          <mxGeometry x="50.5" y="1385" width="1059.5" height="592" as="geometry" />
        </mxCell>
        <mxCell id="1Zl8g6SMvQ0k70rbWufC-306" value="&lt;font style=&quot;font-size: 14px;&quot;&gt;Gửi bản tin cho HC&lt;/font&gt;" style="ellipse;whiteSpace=wrap;html=1;" parent="1Zl8g6SMvQ0k70rbWufC-348" vertex="1">
          <mxGeometry x="458" width="141" height="70" as="geometry" />
        </mxCell>
        <mxCell id="1Zl8g6SMvQ0k70rbWufC-309" value="" style="triangle;whiteSpace=wrap;html=1;direction=north;" parent="1Zl8g6SMvQ0k70rbWufC-348" vertex="1">
          <mxGeometry x="489" y="117" width="80" height="60" as="geometry" />
        </mxCell>
        <mxCell id="1Zl8g6SMvQ0k70rbWufC-310" value="" style="edgeStyle=orthogonalEdgeStyle;rounded=0;orthogonalLoop=1;jettySize=auto;html=1;" parent="1Zl8g6SMvQ0k70rbWufC-348" source="1Zl8g6SMvQ0k70rbWufC-306" target="1Zl8g6SMvQ0k70rbWufC-309" edge="1">
          <mxGeometry relative="1" as="geometry" />
        </mxCell>
        <mxCell id="1Zl8g6SMvQ0k70rbWufC-320" value="&lt;font style=&quot;font-size: 14px;&quot;&gt;Bấm SW1&lt;/font&gt;" style="rounded=1;whiteSpace=wrap;html=1;" parent="1Zl8g6SMvQ0k70rbWufC-348" vertex="1">
          <mxGeometry x="196.5" y="211" width="110" height="60" as="geometry" />
        </mxCell>
        <mxCell id="1Zl8g6SMvQ0k70rbWufC-346" style="edgeStyle=orthogonalEdgeStyle;rounded=0;orthogonalLoop=1;jettySize=auto;html=1;entryX=0.5;entryY=0;entryDx=0;entryDy=0;" parent="1Zl8g6SMvQ0k70rbWufC-348" source="1Zl8g6SMvQ0k70rbWufC-309" target="1Zl8g6SMvQ0k70rbWufC-320" edge="1">
          <mxGeometry relative="1" as="geometry" />
        </mxCell>
        <mxCell id="1Zl8g6SMvQ0k70rbWufC-321" value="" style="triangle;whiteSpace=wrap;html=1;direction=north;" parent="1Zl8g6SMvQ0k70rbWufC-348" vertex="1">
          <mxGeometry x="211.5" y="317" width="80" height="60" as="geometry" />
        </mxCell>
        <mxCell id="1Zl8g6SMvQ0k70rbWufC-328" value="" style="edgeStyle=orthogonalEdgeStyle;rounded=0;orthogonalLoop=1;jettySize=auto;html=1;" parent="1Zl8g6SMvQ0k70rbWufC-348" source="1Zl8g6SMvQ0k70rbWufC-320" target="1Zl8g6SMvQ0k70rbWufC-321" edge="1">
          <mxGeometry relative="1" as="geometry" />
        </mxCell>
        <mxCell id="1Zl8g6SMvQ0k70rbWufC-322" value="&lt;font style=&quot;font-size: 14px;&quot;&gt;Bấm SW1 1 lần&lt;/font&gt;" style="rounded=1;whiteSpace=wrap;html=1;" parent="1Zl8g6SMvQ0k70rbWufC-348" vertex="1">
          <mxGeometry x="50" y="414" width="130" height="60" as="geometry" />
        </mxCell>
        <mxCell id="1Zl8g6SMvQ0k70rbWufC-330" style="edgeStyle=orthogonalEdgeStyle;rounded=0;orthogonalLoop=1;jettySize=auto;html=1;entryX=0.5;entryY=0;entryDx=0;entryDy=0;" parent="1Zl8g6SMvQ0k70rbWufC-348" source="1Zl8g6SMvQ0k70rbWufC-321" target="1Zl8g6SMvQ0k70rbWufC-322" edge="1">
          <mxGeometry relative="1" as="geometry" />
        </mxCell>
        <mxCell id="1Zl8g6SMvQ0k70rbWufC-324" value="&lt;font style=&quot;font-size: 14px;&quot;&gt;Bấm SW1 2 lần&lt;/font&gt;" style="rounded=1;whiteSpace=wrap;html=1;" parent="1Zl8g6SMvQ0k70rbWufC-348" vertex="1">
          <mxGeometry x="323" y="414" width="130" height="60" as="geometry" />
        </mxCell>
        <mxCell id="1Zl8g6SMvQ0k70rbWufC-329" style="edgeStyle=orthogonalEdgeStyle;rounded=0;orthogonalLoop=1;jettySize=auto;html=1;entryX=0.5;entryY=0;entryDx=0;entryDy=0;" parent="1Zl8g6SMvQ0k70rbWufC-348" source="1Zl8g6SMvQ0k70rbWufC-321" target="1Zl8g6SMvQ0k70rbWufC-324" edge="1">
          <mxGeometry relative="1" as="geometry" />
        </mxCell>
        <mxCell id="1Zl8g6SMvQ0k70rbWufC-326" value="&lt;div style=&quot;text-align: left;&quot;&gt;&lt;span style=&quot;font-size: 14px;&quot;&gt;- Bật LED_1 màu BLue&lt;/span&gt;&lt;/div&gt;&lt;div style=&quot;text-align: left;&quot;&gt;&lt;span style=&quot;font-size: 14px;&quot;&gt;- Gửi bản tin phản hồi ON tới HC&lt;/span&gt;&lt;/div&gt;" style="rounded=1;whiteSpace=wrap;html=1;" parent="1Zl8g6SMvQ0k70rbWufC-348" vertex="1">
          <mxGeometry y="522" width="230" height="70" as="geometry" />
        </mxCell>
        <mxCell id="1Zl8g6SMvQ0k70rbWufC-331" value="" style="edgeStyle=orthogonalEdgeStyle;rounded=0;orthogonalLoop=1;jettySize=auto;html=1;" parent="1Zl8g6SMvQ0k70rbWufC-348" source="1Zl8g6SMvQ0k70rbWufC-322" target="1Zl8g6SMvQ0k70rbWufC-326" edge="1">
          <mxGeometry relative="1" as="geometry" />
        </mxCell>
        <mxCell id="1Zl8g6SMvQ0k70rbWufC-327" value="&lt;div style=&quot;text-align: left;&quot;&gt;&lt;span style=&quot;font-size: 14px;&quot;&gt;- Tắt LED_1&lt;/span&gt;&lt;/div&gt;&lt;div style=&quot;text-align: left;&quot;&gt;&lt;span style=&quot;font-size: 14px;&quot;&gt;- Gửi bản tin phản hồi OFF tới HC&lt;/span&gt;&lt;/div&gt;" style="rounded=1;whiteSpace=wrap;html=1;" parent="1Zl8g6SMvQ0k70rbWufC-348" vertex="1">
          <mxGeometry x="273" y="522" width="230" height="70" as="geometry" />
        </mxCell>
        <mxCell id="1Zl8g6SMvQ0k70rbWufC-332" value="" style="edgeStyle=orthogonalEdgeStyle;rounded=0;orthogonalLoop=1;jettySize=auto;html=1;" parent="1Zl8g6SMvQ0k70rbWufC-348" source="1Zl8g6SMvQ0k70rbWufC-324" target="1Zl8g6SMvQ0k70rbWufC-327" edge="1">
          <mxGeometry relative="1" as="geometry" />
        </mxCell>
        <mxCell id="1Zl8g6SMvQ0k70rbWufC-335" value="&lt;font style=&quot;font-size: 14px;&quot;&gt;Bấm SW2&lt;/font&gt;" style="rounded=1;whiteSpace=wrap;html=1;" parent="1Zl8g6SMvQ0k70rbWufC-348" vertex="1">
          <mxGeometry x="753" y="211" width="110" height="60" as="geometry" />
        </mxCell>
        <mxCell id="1Zl8g6SMvQ0k70rbWufC-347" style="edgeStyle=orthogonalEdgeStyle;rounded=0;orthogonalLoop=1;jettySize=auto;html=1;entryX=0.5;entryY=0;entryDx=0;entryDy=0;" parent="1Zl8g6SMvQ0k70rbWufC-348" source="1Zl8g6SMvQ0k70rbWufC-309" target="1Zl8g6SMvQ0k70rbWufC-335" edge="1">
          <mxGeometry relative="1" as="geometry" />
        </mxCell>
        <mxCell id="1Zl8g6SMvQ0k70rbWufC-338" value="" style="triangle;whiteSpace=wrap;html=1;direction=north;" parent="1Zl8g6SMvQ0k70rbWufC-348" vertex="1">
          <mxGeometry x="768" y="317" width="80" height="60" as="geometry" />
        </mxCell>
        <mxCell id="1Zl8g6SMvQ0k70rbWufC-334" value="" style="edgeStyle=orthogonalEdgeStyle;rounded=0;orthogonalLoop=1;jettySize=auto;html=1;" parent="1Zl8g6SMvQ0k70rbWufC-348" source="1Zl8g6SMvQ0k70rbWufC-335" target="1Zl8g6SMvQ0k70rbWufC-338" edge="1">
          <mxGeometry relative="1" as="geometry" />
        </mxCell>
        <mxCell id="1Zl8g6SMvQ0k70rbWufC-340" value="&lt;font style=&quot;font-size: 14px;&quot;&gt;Bấm SW2 1 lần&lt;/font&gt;" style="rounded=1;whiteSpace=wrap;html=1;" parent="1Zl8g6SMvQ0k70rbWufC-348" vertex="1">
          <mxGeometry x="606.5" y="414" width="130" height="60" as="geometry" />
        </mxCell>
        <mxCell id="1Zl8g6SMvQ0k70rbWufC-337" style="edgeStyle=orthogonalEdgeStyle;rounded=0;orthogonalLoop=1;jettySize=auto;html=1;entryX=0.5;entryY=0;entryDx=0;entryDy=0;" parent="1Zl8g6SMvQ0k70rbWufC-348" source="1Zl8g6SMvQ0k70rbWufC-338" target="1Zl8g6SMvQ0k70rbWufC-340" edge="1">
          <mxGeometry relative="1" as="geometry" />
        </mxCell>
        <mxCell id="1Zl8g6SMvQ0k70rbWufC-342" value="&lt;font style=&quot;font-size: 14px;&quot;&gt;Bấm SW2 2 lần&lt;/font&gt;" style="rounded=1;whiteSpace=wrap;html=1;" parent="1Zl8g6SMvQ0k70rbWufC-348" vertex="1">
          <mxGeometry x="879.5" y="414" width="130" height="60" as="geometry" />
        </mxCell>
        <mxCell id="1Zl8g6SMvQ0k70rbWufC-336" style="edgeStyle=orthogonalEdgeStyle;rounded=0;orthogonalLoop=1;jettySize=auto;html=1;entryX=0.5;entryY=0;entryDx=0;entryDy=0;" parent="1Zl8g6SMvQ0k70rbWufC-348" source="1Zl8g6SMvQ0k70rbWufC-338" target="1Zl8g6SMvQ0k70rbWufC-342" edge="1">
          <mxGeometry relative="1" as="geometry" />
        </mxCell>
        <mxCell id="1Zl8g6SMvQ0k70rbWufC-343" value="&lt;div style=&quot;text-align: left;&quot;&gt;&lt;span style=&quot;font-size: 14px;&quot;&gt;- Bật LED_2 màu BLue&lt;/span&gt;&lt;/div&gt;&lt;div style=&quot;text-align: left;&quot;&gt;&lt;span style=&quot;font-size: 14px;&quot;&gt;- Gửi bản tin phản hồi ON tới HC&lt;/span&gt;&lt;/div&gt;" style="rounded=1;whiteSpace=wrap;html=1;" parent="1Zl8g6SMvQ0k70rbWufC-348" vertex="1">
          <mxGeometry x="556.5" y="522" width="230" height="70" as="geometry" />
        </mxCell>
        <mxCell id="1Zl8g6SMvQ0k70rbWufC-339" value="" style="edgeStyle=orthogonalEdgeStyle;rounded=0;orthogonalLoop=1;jettySize=auto;html=1;" parent="1Zl8g6SMvQ0k70rbWufC-348" source="1Zl8g6SMvQ0k70rbWufC-340" target="1Zl8g6SMvQ0k70rbWufC-343" edge="1">
          <mxGeometry relative="1" as="geometry" />
        </mxCell>
        <mxCell id="1Zl8g6SMvQ0k70rbWufC-344" value="&lt;div style=&quot;text-align: left;&quot;&gt;&lt;span style=&quot;font-size: 14px;&quot;&gt;- Tắt LED_2&lt;/span&gt;&lt;/div&gt;&lt;div style=&quot;text-align: left;&quot;&gt;&lt;span style=&quot;font-size: 14px;&quot;&gt;- Gửi bản tin phản hồi OFF tới HC&lt;/span&gt;&lt;/div&gt;" style="rounded=1;whiteSpace=wrap;html=1;" parent="1Zl8g6SMvQ0k70rbWufC-348" vertex="1">
          <mxGeometry x="829.5" y="522" width="230" height="70" as="geometry" />
        </mxCell>
        <mxCell id="1Zl8g6SMvQ0k70rbWufC-341" value="" style="edgeStyle=orthogonalEdgeStyle;rounded=0;orthogonalLoop=1;jettySize=auto;html=1;" parent="1Zl8g6SMvQ0k70rbWufC-348" source="1Zl8g6SMvQ0k70rbWufC-342" target="1Zl8g6SMvQ0k70rbWufC-344" edge="1">
          <mxGeometry relative="1" as="geometry" />
        </mxCell>
        <mxCell id="1Zl8g6SMvQ0k70rbWufC-349" value="&lt;font style=&quot;font-size: 14px;&quot;&gt;Sơ đồ hoạt động 2&lt;/font&gt;" style="swimlane;whiteSpace=wrap;html=1;startSize=40;dashed=1;dashPattern=8 8;" parent="1" vertex="1">
          <mxGeometry x="18.5" y="1318.64" width="1123.5" height="691.36" as="geometry" />
        </mxCell>
        <mxCell id="1Zl8g6SMvQ0k70rbWufC-356" value="" style="edgeStyle=orthogonalEdgeStyle;rounded=0;orthogonalLoop=1;jettySize=auto;html=1;" parent="1" source="1Zl8g6SMvQ0k70rbWufC-350" target="1Zl8g6SMvQ0k70rbWufC-351" edge="1">
          <mxGeometry relative="1" as="geometry" />
        </mxCell>
        <mxCell id="1Zl8g6SMvQ0k70rbWufC-350" value="&lt;font style=&quot;font-size: 14px;&quot;&gt;Rời mạng và Reset thiết bị&lt;/font&gt;" style="ellipse;whiteSpace=wrap;html=1;" parent="1" vertex="1">
          <mxGeometry x="308.25" y="2130" width="188.5" height="81" as="geometry" />
        </mxCell>
        <mxCell id="1Zl8g6SMvQ0k70rbWufC-357" style="edgeStyle=orthogonalEdgeStyle;rounded=0;orthogonalLoop=1;jettySize=auto;html=1;entryX=0.5;entryY=0;entryDx=0;entryDy=0;" parent="1" source="1Zl8g6SMvQ0k70rbWufC-351" target="1Zl8g6SMvQ0k70rbWufC-354" edge="1">
          <mxGeometry relative="1" as="geometry" />
        </mxCell>
        <mxCell id="1Zl8g6SMvQ0k70rbWufC-358" style="edgeStyle=orthogonalEdgeStyle;rounded=0;orthogonalLoop=1;jettySize=auto;html=1;entryX=0.5;entryY=0;entryDx=0;entryDy=0;" parent="1" source="1Zl8g6SMvQ0k70rbWufC-351" target="1Zl8g6SMvQ0k70rbWufC-352" edge="1">
          <mxGeometry relative="1" as="geometry" />
        </mxCell>
        <mxCell id="1Zl8g6SMvQ0k70rbWufC-351" value="" style="triangle;whiteSpace=wrap;html=1;direction=north;" parent="1" vertex="1">
          <mxGeometry x="362.5" y="2258" width="80" height="60" as="geometry" />
        </mxCell>
        <mxCell id="1Zl8g6SMvQ0k70rbWufC-359" style="edgeStyle=orthogonalEdgeStyle;rounded=0;orthogonalLoop=1;jettySize=auto;html=1;entryX=0.5;entryY=0;entryDx=0;entryDy=0;" parent="1" source="1Zl8g6SMvQ0k70rbWufC-352" target="1Zl8g6SMvQ0k70rbWufC-355" edge="1">
          <mxGeometry relative="1" as="geometry" />
        </mxCell>
        <mxCell id="1Zl8g6SMvQ0k70rbWufC-352" value="&lt;font style=&quot;font-size: 14px;&quot;&gt;Bấm SW1 5 lần&lt;/font&gt;" style="rounded=1;whiteSpace=wrap;html=1;" parent="1" vertex="1">
          <mxGeometry x="212.5" y="2362" width="110" height="60" as="geometry" />
        </mxCell>
        <mxCell id="1Zl8g6SMvQ0k70rbWufC-360" style="edgeStyle=orthogonalEdgeStyle;rounded=0;orthogonalLoop=1;jettySize=auto;html=1;entryX=0.5;entryY=0;entryDx=0;entryDy=0;" parent="1" source="1Zl8g6SMvQ0k70rbWufC-354" target="1Zl8g6SMvQ0k70rbWufC-355" edge="1">
          <mxGeometry relative="1" as="geometry" />
        </mxCell>
        <mxCell id="1Zl8g6SMvQ0k70rbWufC-354" value="&lt;font style=&quot;font-size: 14px;&quot;&gt;Nhận bản tin&lt;/font&gt;&lt;br style=&quot;font-size: 14px;&quot;&gt;&lt;span style=&quot;font-size: 14px;&quot;&gt;ZDO Leave&lt;/span&gt;" style="rounded=1;whiteSpace=wrap;html=1;" parent="1" vertex="1">
          <mxGeometry x="482.5" y="2362" width="110" height="60" as="geometry" />
        </mxCell>
        <mxCell id="1Zl8g6SMvQ0k70rbWufC-355" value="&lt;div style=&quot;text-align: left;&quot;&gt;&lt;span style=&quot;font-size: 14px;&quot;&gt;- Gửi phản hồi ZDO Leave Response cho HC&lt;/span&gt;&lt;/div&gt;&lt;div style=&quot;text-align: left;&quot;&gt;&lt;span style=&quot;font-size: 14px;&quot;&gt;- Rời mạng&lt;/span&gt;&lt;/div&gt;&lt;div style=&quot;text-align: left;&quot;&gt;&lt;span style=&quot;font-size: 14px;&quot;&gt;- Reboot&lt;/span&gt;&lt;/div&gt;" style="rounded=1;whiteSpace=wrap;html=1;" parent="1" vertex="1">
          <mxGeometry x="251.88" y="2510" width="301.25" height="80" as="geometry" />
        </mxCell>
      </root>
    </mxGraphModel>
  </diagram>
</mxfile>
